<svg width="19" height="19" viewBox="0 0 19 19" fill="none" xmlns="http://www.w3.org/2000/svg">
<path d="M15.04 8.79004L9.37998 3.14004C9.28702 3.04631 9.17642 2.97191 9.05456 2.92115C8.9327 2.87038 8.80199 2.84424 8.66998 2.84424C8.53797 2.84424 8.40726 2.87038 8.28541 2.92115C8.16355 2.97191 8.05294 3.04631 7.95998 3.14004C7.77373 3.3274 7.66919 3.58085 7.66919 3.84504C7.66919 4.10922 7.77373 4.36267 7.95998 4.55004L12.91 9.55004L7.95998 14.5C7.77373 14.6874 7.66919 14.9409 7.66919 15.205C7.66919 15.4692 7.77373 15.7227 7.95998 15.91C8.0526 16.0045 8.16304 16.0797 8.28492 16.1312C8.40679 16.1827 8.53767 16.2095 8.66998 16.21C8.80229 16.2095 8.93317 16.1827 9.05505 16.1312C9.17692 16.0797 9.28737 16.0045 9.37998 15.91L15.04 10.26C15.1415 10.1664 15.2225 10.0527 15.2779 9.92624C15.3333 9.79974 15.3619 9.66314 15.3619 9.52504C15.3619 9.38693 15.3333 9.25033 15.2779 9.12383C15.2225 8.99733 15.1415 8.88368 15.04 8.79004Z" fill="#18362B"/>
</svg>
