<svg width="19" height="19" viewBox="0 0 19 19" fill="none" xmlns="http://www.w3.org/2000/svg">
<path d="M10.21 14.04L15.86 8.37998C15.9537 8.28702 16.0281 8.17642 16.0789 8.05456C16.1296 7.9327 16.1558 7.80199 16.1558 7.66998C16.1558 7.53797 16.1296 7.40726 16.0789 7.28541C16.0281 7.16355 15.9537 7.05294 15.86 6.95998C15.6726 6.77373 15.4191 6.66919 15.155 6.66919C14.8908 6.66919 14.6373 6.77373 14.45 6.95998L9.44996 11.91L4.49996 6.95998C4.3126 6.77373 4.05915 6.66919 3.79496 6.66919C3.53078 6.66919 3.27733 6.77373 3.08996 6.95998C2.99548 7.0526 2.92031 7.16304 2.86881 7.28492C2.81731 7.40679 2.79051 7.53767 2.78996 7.66998C2.79051 7.80229 2.81731 7.93317 2.86881 8.05505C2.92031 8.17692 2.99548 8.28737 3.08996 8.37998L8.73996 14.04C8.83361 14.1415 8.94726 14.2225 9.07376 14.2779C9.20026 14.3333 9.33686 14.3619 9.47496 14.3619C9.61307 14.3619 9.74967 14.3333 9.87617 14.2779C10.0027 14.2225 10.1163 14.1415 10.21 14.04Z" fill="#18362B"/>
</svg>
